<?xml version="1.0" encoding="UTF-8" standalone="no"?>
<!-- Generator: Gravit.io -->
<svg xmlns="http://www.w3.org/2000/svg" xmlns:xlink="http://www.w3.org/1999/xlink" style="isolation:isolate" viewBox="0 0 128 128" width="128" height="128"><defs><clipPath id="_clipPath_U4dYG3qvwSRuo3LIf0QO9wYP5LjLnaWS"><rect width="128" height="128"/></clipPath></defs><g clip-path="url(#_clipPath_U4dYG3qvwSRuo3LIf0QO9wYP5LjLnaWS)"><path d=" M 89.333 128 L 128 128 L 128 64 L 128 0 L 64 0 L 0 0 L 0 64 L 0 128 L 64 128 L 68.667 128 L 68.533 106.667 L 68.333 85.267 L 61.333 85.133 C 57.467 85.067 53.933 84.733 53.533 84.467 C 52.867 84.067 52.667 81.267 52.667 74.467 C 52.667 62.933 52.4 63.2 61.733 63.4 C 65.2 63.467 68.133 63.4 68.267 63.267 C 68.467 63.133 68.6 58.667 68.733 53.333 C 68.867 45.467 69.133 43.2 70.133 41.333 C 70.8 40.067 71.333 38.667 71.333 38.2 C 71.333 37.067 79.067 29.333 80.267 29.333 C 80.733 29.333 81.867 28.8 82.733 28.133 C 84.133 27 85.8 26.867 96.133 26.733 C 106.933 26.6 107.933 26.667 108.467 27.8 C 108.933 28.8 109.067 35.667 108.733 43.533 L 108.667 45.333 L 102.067 45.333 C 90.667 45.333 89.067 46.933 89.467 57.933 L 89.667 63.533 L 96.2 63.4 C 99.733 63.333 103.067 63.467 103.533 63.8 C 103.933 64.067 104.667 64.333 105 64.4 C 105.4 64.4 106.067 64.533 106.533 64.533 C 107.133 64.667 107.333 67.133 107.333 74.6 L 107.333 84.533 L 104.933 84.933 C 103.667 85.2 99.667 85.333 96.133 85.267 L 89.667 85.133 L 89.467 106.6 L 89.333 128 Z " fill-rule="evenodd" fill="rgb(255,192,203)"/></g></svg>