<?xml version="1.0" encoding="UTF-8" standalone="no"?>
<!-- Generator: Gravit.io -->
<svg xmlns="http://www.w3.org/2000/svg" xmlns:xlink="http://www.w3.org/1999/xlink" style="isolation:isolate" viewBox="0 0 128 128" width="128" height="128"><defs><clipPath id="_clipPath_MGMljFaBbw2y6GJhzB5vXo6Zj4P7XJ9H"><rect width="128" height="128"/></clipPath></defs><g clip-path="url(#_clipPath_MGMljFaBbw2y6GJhzB5vXo6Zj4P7XJ9H)"><path d=" M 41.264 126.95 C 35.642 124.774 29.421 121.19 24.524 117.299 C 21.6 114.97 16.628 109.952 14.205 106.88 C 7.833 98.816 3.286 89.062 1.312 79.232 C -0.437 70.528 -0.437 60.032 1.312 51.738 C 4.86 34.918 14.804 20.096 28.896 10.598 C 37.117 5.069 46.262 1.638 56.006 0.384 C 60.054 -0.128 67.949 -0.128 71.997 0.384 C 90.687 2.765 107.377 13.491 117.796 29.824 C 121.944 36.352 125.042 43.981 126.691 51.738 C 128.44 60.032 128.44 70.554 126.666 79.232 C 124.767 88.704 120.545 98.022 114.523 105.984 C 112.249 108.979 107.352 114.074 104.354 116.557 C 99.207 120.832 92.336 124.851 86.364 127.104 C 83.591 128.154 82.216 128.205 81.017 127.309 C 79.743 126.336 79.743 126.31 79.743 114.765 C 79.743 102.733 79.643 101.632 78.144 98.406 C 77.669 97.408 76.894 96.102 76.395 95.539 C 75.895 95.002 75.495 94.464 75.495 94.413 C 75.495 94.336 76.22 94.208 77.144 94.106 C 81.517 93.645 86.889 92.083 90.487 90.24 C 99.432 85.632 103.929 77.44 104.629 64.512 C 104.979 57.626 103.354 51.61 99.781 46.797 C 99.107 45.875 98.482 45.005 98.382 44.826 C 98.282 44.672 98.457 43.546 98.757 42.291 C 99.557 39.091 99.532 34.611 98.657 31.181 C 98.307 29.798 97.858 28.365 97.683 27.981 C 97.358 27.29 97.283 27.264 95.434 27.315 C 92.261 27.392 86.889 29.568 81.991 32.794 L 80.068 34.048 L 77.469 33.408 C 69.149 31.386 58.929 31.386 50.534 33.434 L 47.936 34.048 L 46.037 32.794 C 41.439 29.798 36.017 27.52 32.719 27.238 C 30.57 27.034 30.57 27.059 29.821 29.44 C 28.496 33.69 28.297 38.451 29.246 42.291 C 29.546 43.546 29.721 44.672 29.621 44.826 C 29.521 45.005 28.896 45.875 28.222 46.797 C 24.649 51.61 23.025 57.626 23.374 64.512 C 24.124 78.285 29.271 86.835 39.44 91.187 C 42.089 92.314 46.262 93.466 49.385 93.952 C 52.883 94.464 52.683 94.336 51.708 95.437 C 51.259 95.949 50.634 96.794 50.334 97.28 C 49.685 98.355 48.51 101.862 48.51 102.733 C 48.51 103.27 48.285 103.45 47.086 103.91 C 44.862 104.73 43.313 105.011 41.014 105.037 C 36.192 105.062 32.919 103.091 29.771 98.304 C 26.797 93.798 23.449 91.392 20.026 91.29 C 16.228 91.213 16.128 92.544 19.776 95.104 C 22.4 96.922 23.999 99.046 26.073 103.373 C 27.497 106.342 28.097 107.29 29.271 108.493 C 30.995 110.285 33.494 111.693 36.192 112.41 C 38.566 113.05 43.363 113.126 46.336 112.563 L 48.26 112.205 L 48.26 118.886 C 48.26 125.133 48.235 125.619 47.761 126.413 C 47.186 127.36 45.937 128 44.712 128 C 44.263 127.974 42.714 127.514 41.264 126.95 Z " fill="rgb(255,192,203)"/></g></svg>