<?xml version="1.0" encoding="UTF-8" standalone="no"?>
<!-- Generator: Gravit.io -->
<svg xmlns="http://www.w3.org/2000/svg" xmlns:xlink="http://www.w3.org/1999/xlink" style="isolation:isolate" viewBox="0 0 128 128" width="128" height="128"><defs><clipPath id="_clipPath_ev8SvVAHQXac5TSKGZbSjknM8eLzVCka"><rect width="128" height="128"/></clipPath></defs><g clip-path="url(#_clipPath_ev8SvVAHQXac5TSKGZbSjknM8eLzVCka)"><path d=" M 27.7 126.9 C 17.9 124.5 7.8 116 3.2 106.2 L 0.5 100.5 L 0.5 64 L 0.5 27.5 L 3.2 21.8 C 6.6 14.4 14.4 6.6 21.8 3.2 L 27.5 0.5 L 64 0.5 L 100.5 0.5 L 106.2 3.2 C 113.6 6.6 120.8 13.9 124.6 21.5 L 127.5 27.5 L 127.5 64 L 127.5 100.5 L 124.6 106.5 C 120.8 114.1 114.1 120.8 106.5 124.6 L 100.5 127.5 L 66 127.7 C 47 127.8 29.8 127.4 27.7 126.9 Z  M 98.9 113.3 C 104.9 111.1 110.3 106 112.9 99.9 C 115 95 115.1 93.5 115.1 64 C 115.1 34.7 115 32.9 113 28.3 C 110.2 22 105.9 17.6 99.7 15 C 94.9 12.9 93.2 12.8 64 12.8 C 34.8 12.8 33.1 12.9 28.3 15 C 22.1 17.6 17.8 22 15 28.4 C 12.9 33 12.8 34.7 12.8 64 C 12.8 93.3 12.9 95 15 99.6 C 17.6 105.5 21.1 109.4 26.5 112.3 C 29.9 114.2 32.6 114.6 45.5 115 C 70.5 115.8 93.9 115.1 98.9 113.3 Z " fill="rgb(255,192,203)"/><path d=" M 51 94.8 C 29.8 86.6 24 56.9 40.4 40.4 C 53.3 27.6 74.7 27.6 87.6 40.4 C 104.2 57 98.2 86.8 76.7 94.8 C 69 97.7 58.6 97.7 51 94.8 Z  M 72.8 82.1 C 80 78.4 84 71.9 84 64 C 84 52.7 75.3 44 64 44 C 42.6 44 36.3 72.2 55.5 82.3 C 59.7 84.6 68.2 84.4 72.8 82.1 Z " fill="rgb(255,192,203)"/><path d=" M 91.1 35.4 C 86.8 30 90.1 23 96.9 23 C 103.9 23 107.6 30.8 103 35.8 C 99.9 39.1 93.8 38.8 91.1 35.4 Z " fill="rgb(255,192,203)"/></g></svg>